<svg width="234" height="82" viewBox="0 0 234 82" fill="none" xmlns="http://www.w3.org/2000/svg">
<path d="M122.71 41.7349C120.964 41.7349 119.392 41.4356 117.996 40.8369C116.599 40.2133 115.501 39.3403 114.703 38.2178C113.905 37.0953 113.506 35.7858 113.506 34.2891H118.07C118.17 35.4116 118.607 36.3345 119.38 37.0579C120.178 37.7813 121.288 38.143 122.71 38.143C124.182 38.143 125.329 37.7938 126.152 37.0953C126.975 36.372 127.387 35.449 127.387 34.3265C127.387 33.4535 127.125 32.7426 126.601 32.1938C126.102 31.645 125.466 31.221 124.693 30.9217C123.945 30.6223 122.897 30.2981 121.55 29.9488C119.854 29.4999 118.469 29.0509 117.397 28.6019C116.349 28.1279 115.451 27.4046 114.703 26.4317C113.955 25.4589 113.58 24.1618 113.58 22.5404C113.58 21.0438 113.955 19.7342 114.703 18.6118C115.451 17.4893 116.499 16.6287 117.846 16.03C119.193 15.4314 120.752 15.1321 122.523 15.1321C125.042 15.1321 127.1 15.7681 128.697 17.0403C130.318 18.2875 131.216 20.0086 131.391 22.2037H126.676C126.601 21.2558 126.152 20.4451 125.329 19.7717C124.506 19.0982 123.421 18.7614 122.074 18.7614C120.852 18.7614 119.854 19.0732 119.081 19.6968C118.307 20.3204 117.921 21.2184 117.921 22.3908C117.921 23.189 118.158 23.85 118.632 24.3738C119.13 24.8727 119.754 25.2718 120.502 25.5712C121.251 25.8705 122.273 26.1948 123.571 26.544C125.292 27.0179 126.689 27.4919 127.761 27.9658C128.859 28.4397 129.782 29.1756 130.53 30.1733C131.303 31.1462 131.69 32.4557 131.69 34.102C131.69 35.4241 131.328 36.6713 130.605 37.8437C129.906 39.016 128.871 39.9639 127.499 40.6873C126.152 41.3857 124.556 41.7349 122.71 41.7349ZM141.699 24.3364V35.7484C141.699 36.5216 141.874 37.0829 142.223 37.4321C142.597 37.7564 143.221 37.9185 144.094 37.9185H146.713V41.473H143.346C141.425 41.473 139.953 41.024 138.93 40.126C137.908 39.2281 137.396 37.7688 137.396 35.7484V24.3364H134.964V20.8567H137.396V15.7307H141.699V20.8567H146.713V24.3364H141.699ZM159.587 41.8098C157.641 41.8098 155.883 41.3732 154.311 40.5002C152.74 39.6022 151.505 38.355 150.607 36.7586C149.709 35.1372 149.26 33.2664 149.26 31.1462C149.26 29.0509 149.721 27.1925 150.644 25.5712C151.567 23.9498 152.827 22.7026 154.423 21.8295C156.02 20.9565 157.803 20.52 159.774 20.52C161.744 20.52 163.528 20.9565 165.124 21.8295C166.721 22.7026 167.98 23.9498 168.903 25.5712C169.826 27.1925 170.288 29.0509 170.288 31.1462C170.288 33.2415 169.814 35.0998 168.866 36.7212C167.918 38.3425 166.621 39.6022 164.975 40.5002C163.353 41.3732 161.557 41.8098 159.587 41.8098ZM159.587 38.1056C160.684 38.1056 161.707 37.8437 162.655 37.3198C163.628 36.796 164.413 36.0103 165.012 34.9626C165.611 33.915 165.91 32.6428 165.91 31.1462C165.91 29.6495 165.623 28.3898 165.05 27.3671C164.476 26.3195 163.715 25.5337 162.767 25.0099C161.819 24.4861 160.797 24.2242 159.699 24.2242C158.601 24.2242 157.579 24.4861 156.631 25.0099C155.708 25.5337 154.972 26.3195 154.423 27.3671C153.875 28.3898 153.6 29.6495 153.6 31.1462C153.6 33.3662 154.161 35.0873 155.284 36.3096C156.431 37.5069 157.866 38.1056 159.587 38.1056ZM178.77 23.85C179.393 22.8024 180.217 21.9917 181.239 21.418C182.287 20.8193 183.522 20.52 184.944 20.52V24.9351H183.858C182.187 24.9351 180.915 25.3591 180.042 26.2072C179.194 27.0553 178.77 28.527 178.77 30.6223V41.473H174.504V20.8567H178.77V23.85ZM207.759 30.6598C207.759 31.433 207.71 32.1315 207.61 32.7551H191.858C191.982 34.4014 192.593 35.7234 193.691 36.7212C194.789 37.7189 196.136 38.2178 197.732 38.2178C200.027 38.2178 201.648 37.2575 202.596 35.3368H207.198C206.575 37.2325 205.44 38.7915 203.793 40.0138C202.172 41.2111 200.152 41.8098 197.732 41.8098C195.761 41.8098 193.99 41.3732 192.419 40.5002C190.872 39.6022 189.65 38.355 188.752 36.7586C187.879 35.1372 187.443 33.2664 187.443 31.1462C187.443 29.0259 187.867 27.1676 188.715 25.5712C189.588 23.9498 190.798 22.7026 192.344 21.8295C193.916 20.9565 195.711 20.52 197.732 20.52C199.678 20.52 201.411 20.944 202.933 21.7921C204.454 22.6402 205.639 23.8375 206.487 25.3841C207.335 26.9057 207.759 28.6642 207.759 30.6598ZM203.307 29.3128C203.282 27.7413 202.721 26.4816 201.623 25.5337C200.526 24.5859 199.166 24.1119 197.545 24.1119C196.073 24.1119 194.814 24.5859 193.766 25.5337C192.718 26.4567 192.095 27.7164 191.895 29.3128H203.307ZM216.223 15.4688V41.473H211.957V15.4688H216.223ZM226.799 24.3364V35.7484C226.799 36.5216 226.974 37.0829 227.323 37.4321C227.697 37.7564 228.321 37.9185 229.194 37.9185H231.813V41.473H228.445C226.525 41.473 225.053 41.024 224.03 40.126C223.008 39.2281 222.496 37.7688 222.496 35.7484V24.3364H220.064V20.8567H222.496V15.7307H226.799V20.8567H231.813V24.3364H226.799Z" fill="white"/>
<rect opacity="0.2" width="74.8323" height="74.8323" rx="37.4161" fill="white"/>
<rect x="32.7393" y="31.1801" width="49.8882" height="49.8882" rx="24.9441" fill="white"/>
</svg>
